<svg id="visual" viewBox="0 0 900 600" width="900" height="600" xmlns="http://www.w3.org/2000/svg" xmlns:xlink="http://www.w3.org/1999/xlink" version="1.1"><g><g transform="translate(288 560)"><path d="M0 -144.1L124.8 -72L124.8 72L0 144.1L-124.8 72L-124.8 -72Z" fill="#184f68"></path></g><g transform="translate(795 489)"><path d="M0 -76L65.8 -38L65.8 38L0 76L-65.8 38L-65.8 -38Z" fill="#184f68"></path></g><g transform="translate(530 122)"><path d="M0 -77L66.7 -38.5L66.7 38.5L0 77L-66.7 38.5L-66.7 -38.5Z" fill="#184f68"></path></g><g transform="translate(174 49)"><path d="M0 -114L98.7 -57L98.7 57L0 114L-98.7 57L-98.7 -57Z" fill="#184f68"></path></g><g transform="translate(23 395)"><path d="M0 -139L120.4 -69.5L120.4 69.5L0 139L-120.4 69.5L-120.4 -69.5Z" fill="#184f68"></path></g><g transform="translate(863 97)"><path d="M0 -141L122.1 -70.5L122.1 70.5L0 141L-122.1 70.5L-122.1 -70.5Z" fill="#184f68"></path></g></g></svg>